<mxfile host="Electron" modified="2024-07-20T19:35:53.755Z" agent="Mozilla/5.0 (Windows NT 10.0; Win64; x64) AppleWebKit/537.36 (KHTML, like Gecko) draw.io/24.6.4 Chrome/124.0.6367.207 Electron/30.0.6 Safari/537.36" etag="tcaFpbZxcpgxBjaYvhkL" version="24.6.4" type="device">
  <diagram name="Page-1" id="bpaJR9x2MQmOZ-Py6obe">
    <mxGraphModel dx="1730" dy="1632" grid="0" gridSize="10" guides="1" tooltips="1" connect="1" arrows="1" fold="1" page="1" pageScale="1" pageWidth="850" pageHeight="1100" background="#000000" math="0" shadow="0">
      <root>
        <mxCell id="0" />
        <mxCell id="1" parent="0" />
        <mxCell id="1LSWf5ZobUg1uSj3djis-57" style="edgeStyle=orthogonalEdgeStyle;rounded=0;orthogonalLoop=1;jettySize=auto;html=1;strokeColor=#FFBF00;strokeWidth=2;" parent="1" edge="1">
          <mxGeometry relative="1" as="geometry">
            <mxPoint x="403" y="107" as="targetPoint" />
            <mxPoint x="403" y="107" as="sourcePoint" />
            <Array as="points">
              <mxPoint x="403" y="50" />
              <mxPoint x="403" y="50" />
            </Array>
          </mxGeometry>
        </mxCell>
        <mxCell id="1LSWf5ZobUg1uSj3djis-4" value="&lt;b&gt;&lt;font style=&quot;font-size: 15px;&quot;&gt;Admin Login&lt;/font&gt;&lt;/b&gt;" style="rounded=1;whiteSpace=wrap;html=1;labelBackgroundColor=none;fillColor=#000000;strokeColor=#FFBF00;fontColor=#FFBF00;strokeWidth=2;" parent="1" vertex="1">
          <mxGeometry x="345" y="110" width="120" height="50" as="geometry" />
        </mxCell>
        <mxCell id="1LSWf5ZobUg1uSj3djis-5" value="" style="endArrow=classic;html=1;rounded=0;labelBackgroundColor=none;strokeColor=#FFBF00;fontColor=default;strokeWidth=2;" parent="1" edge="1">
          <mxGeometry width="50" height="50" relative="1" as="geometry">
            <mxPoint x="401" y="160" as="sourcePoint" />
            <mxPoint x="401" y="250" as="targetPoint" />
          </mxGeometry>
        </mxCell>
        <mxCell id="1LSWf5ZobUg1uSj3djis-6" value="" style="ellipse;html=1;shape=startState;fillColor=#000000;strokeColor=#FFBF00;labelBackgroundColor=none;fontColor=#FFFFFF;" parent="1" vertex="1">
          <mxGeometry x="388" y="28" width="30" height="30" as="geometry" />
        </mxCell>
        <mxCell id="1LSWf5ZobUg1uSj3djis-21" value="Login Successful&amp;nbsp;" style="text;strokeColor=#d79b00;align=center;fillColor=#ffcd28;html=1;verticalAlign=middle;whiteSpace=wrap;rounded=0;gradientColor=#ffa500;" parent="1" vertex="1">
          <mxGeometry x="405" y="200" width="85" height="30" as="geometry" />
        </mxCell>
        <mxCell id="1LSWf5ZobUg1uSj3djis-22" value="" style="endArrow=classic;html=1;rounded=0;strokeColor=#FFBF00;exitX=1;exitY=0.5;exitDx=0;exitDy=0;strokeWidth=2;shadow=0;flowAnimation=0;" parent="1" source="1LSWf5ZobUg1uSj3djis-4" edge="1">
          <mxGeometry width="50" height="50" relative="1" as="geometry">
            <mxPoint x="495" y="133" as="sourcePoint" />
            <mxPoint x="967" y="549" as="targetPoint" />
            <Array as="points">
              <mxPoint x="967" y="131" />
            </Array>
          </mxGeometry>
        </mxCell>
        <mxCell id="1LSWf5ZobUg1uSj3djis-23" value="Login Failed" style="text;strokeColor=#d79b00;align=center;fillColor=#ffcd28;html=1;verticalAlign=middle;whiteSpace=wrap;rounded=0;gradientColor=#ffa500;" parent="1" vertex="1">
          <mxGeometry x="992" y="468" width="70" height="30" as="geometry" />
        </mxCell>
        <mxCell id="1LSWf5ZobUg1uSj3djis-24" value="" style="ellipse;html=1;shape=endState;fillColor=#FFBF00;strokeColor=#000000;fontColor=#FFFFFF;strokeWidth=2;" parent="1" vertex="1">
          <mxGeometry x="891" y="443" width="30" height="30" as="geometry" />
        </mxCell>
        <mxCell id="1LSWf5ZobUg1uSj3djis-50" value="" style="rounded=1;whiteSpace=wrap;html=1;strokeColor=#FFBF00;fontColor=#FFFFFF;fillColor=#000000;arcSize=6;strokeWidth=2;" parent="1" vertex="1">
          <mxGeometry x="-137" y="253" width="1065" height="642" as="geometry" />
        </mxCell>
        <mxCell id="1LSWf5ZobUg1uSj3djis-55" value="" style="line;strokeWidth=2;html=1;perimeter=backbonePerimeter;points=[];outlineConnect=0;strokeColor=#FFBF00;fontColor=#FFFFFF;fillColor=#182E3E;" parent="1" vertex="1">
          <mxGeometry x="-136" y="312" width="1063" height="10" as="geometry" />
        </mxCell>
        <mxCell id="1LSWf5ZobUg1uSj3djis-58" value="&lt;font color=&quot;#ffbf00&quot; style=&quot;font-size: 15px;&quot;&gt;&lt;b&gt;Admin Logged in&lt;/b&gt;&lt;/font&gt;" style="text;align=center;html=1;verticalAlign=middle;whiteSpace=wrap;rounded=0;fillColor=#000000;strokeColor=#0d0d0d;" parent="1" vertex="1">
          <mxGeometry x="344" y="269" width="192" height="30" as="geometry" />
        </mxCell>
        <mxCell id="1LSWf5ZobUg1uSj3djis-59" value="" style="ellipse;html=1;shape=startState;fillColor=#FFBF00;strokeColor=#FFBF00;fontColor=#FFFFFF;strokeWidth=2;" parent="1" vertex="1">
          <mxGeometry x="388" y="365" width="30" height="30" as="geometry" />
        </mxCell>
        <mxCell id="1LSWf5ZobUg1uSj3djis-60" value="" style="edgeStyle=orthogonalEdgeStyle;html=1;verticalAlign=bottom;endArrow=open;endSize=8;strokeColor=#FFBF00;rounded=0;strokeWidth=2;" parent="1" source="1LSWf5ZobUg1uSj3djis-59" target="1LSWf5ZobUg1uSj3djis-61" edge="1">
          <mxGeometry relative="1" as="geometry">
            <mxPoint x="403" y="475" as="targetPoint" />
          </mxGeometry>
        </mxCell>
        <mxCell id="1LSWf5ZobUg1uSj3djis-61" value="&lt;font color=&quot;#ffbf00&quot; style=&quot;font-size: 16px;&quot;&gt;Admin Actions&lt;/font&gt;" style="rounded=1;whiteSpace=wrap;html=1;strokeColor=#FFBF00;fontColor=#FFFFFF;fillColor=#000000;strokeWidth=2;" parent="1" vertex="1">
          <mxGeometry x="328" y="542" width="150" height="111" as="geometry" />
        </mxCell>
        <mxCell id="1LSWf5ZobUg1uSj3djis-62" value="&lt;font style=&quot;font-size: 15px;&quot; color=&quot;#ffbf00&quot;&gt;Account Number For User&lt;/font&gt;" style="rounded=1;whiteSpace=wrap;html=1;strokeColor=#FFBF00;fontColor=#FFFFFF;fillColor=#000000;strokeWidth=2;" parent="1" vertex="1">
          <mxGeometry x="-33" y="401" width="158" height="72" as="geometry" />
        </mxCell>
        <mxCell id="1LSWf5ZobUg1uSj3djis-63" value="&lt;font color=&quot;#ffbf00&quot; style=&quot;font-size: 15px;&quot;&gt;User Balance&lt;/font&gt;" style="rounded=1;whiteSpace=wrap;html=1;strokeColor=#FFBF00;fontColor=#FFFFFF;fillColor=#000000;strokeWidth=2;" parent="1" vertex="1">
          <mxGeometry x="-33" y="522" width="161" height="70" as="geometry" />
        </mxCell>
        <mxCell id="1LSWf5ZobUg1uSj3djis-64" value="&lt;font color=&quot;#ffbf00&quot; style=&quot;font-size: 15px;&quot;&gt;Trancaction History&lt;/font&gt;" style="rounded=1;whiteSpace=wrap;html=1;strokeColor=#FFBF00;fontColor=#FFFFFF;fillColor=#000000;strokeWidth=2;" parent="1" vertex="1">
          <mxGeometry x="-33" y="643" width="162" height="71" as="geometry" />
        </mxCell>
        <mxCell id="1LSWf5ZobUg1uSj3djis-65" value="&lt;font color=&quot;#ffbf00&quot; style=&quot;font-size: 15px;&quot;&gt;Delete User&amp;nbsp;&lt;/font&gt;" style="rounded=1;whiteSpace=wrap;html=1;strokeColor=#FFBF00;fontColor=#FFFFFF;fillColor=#000000;" parent="1" vertex="1">
          <mxGeometry x="-33" y="771" width="160" height="60" as="geometry" />
        </mxCell>
        <mxCell id="1LSWf5ZobUg1uSj3djis-66" value="&lt;font style=&quot;font-size: 15px;&quot; color=&quot;#ffbf00&quot;&gt;View Bank DataBase&lt;/font&gt;" style="rounded=1;whiteSpace=wrap;html=1;strokeColor=#FFBF00;fontColor=#FFFFFF;fillColor=#000000;" parent="1" vertex="1">
          <mxGeometry x="663" y="401" width="161" height="60" as="geometry" />
        </mxCell>
        <mxCell id="1LSWf5ZobUg1uSj3djis-67" value="&lt;font style=&quot;font-size: 15px;&quot; color=&quot;#ffbf00&quot;&gt;Create User&amp;nbsp;&lt;/font&gt;" style="rounded=1;whiteSpace=wrap;html=1;strokeColor=#FFBF00;fontColor=#FFFFFF;fillColor=#000000;" parent="1" vertex="1">
          <mxGeometry x="663" y="517" width="164" height="65" as="geometry" />
        </mxCell>
        <mxCell id="1LSWf5ZobUg1uSj3djis-68" value="&lt;font style=&quot;font-size: 15px;&quot; color=&quot;#ffbf00&quot;&gt;Update User Data&lt;/font&gt;" style="rounded=1;whiteSpace=wrap;html=1;strokeColor=#FFBF00;fontColor=#FFFFFF;fillColor=#000000;" parent="1" vertex="1">
          <mxGeometry x="663" y="643" width="164" height="63" as="geometry" />
        </mxCell>
        <mxCell id="1LSWf5ZobUg1uSj3djis-70" value="" style="edgeStyle=segmentEdgeStyle;endArrow=classic;html=1;curved=0;rounded=0;endSize=8;startSize=8;strokeColor=#FFBF00;strokeWidth=1;exitX=1;exitY=0.25;exitDx=0;exitDy=0;" parent="1" source="1LSWf5ZobUg1uSj3djis-62" target="1LSWf5ZobUg1uSj3djis-61" edge="1">
          <mxGeometry width="50" height="50" relative="1" as="geometry">
            <mxPoint x="129" y="442" as="sourcePoint" />
            <mxPoint x="267" y="421" as="targetPoint" />
            <Array as="points">
              <mxPoint x="125" y="452" />
              <mxPoint x="340" y="452" />
            </Array>
          </mxGeometry>
        </mxCell>
        <mxCell id="1LSWf5ZobUg1uSj3djis-73" value="" style="edgeStyle=elbowEdgeStyle;elbow=horizontal;endArrow=classic;html=1;curved=0;rounded=0;endSize=8;startSize=8;strokeColor=#FFBF00;entryX=1;entryY=0.25;entryDx=0;entryDy=0;exitX=0.25;exitY=0;exitDx=0;exitDy=0;" parent="1" source="1LSWf5ZobUg1uSj3djis-61" target="1LSWf5ZobUg1uSj3djis-62" edge="1">
          <mxGeometry width="50" height="50" relative="1" as="geometry">
            <mxPoint x="365" y="504" as="sourcePoint" />
            <mxPoint x="149" y="417" as="targetPoint" />
            <Array as="points">
              <mxPoint x="365" y="466" />
            </Array>
          </mxGeometry>
        </mxCell>
        <mxCell id="1LSWf5ZobUg1uSj3djis-74" value="&lt;font color=&quot;#ffbf00&quot;&gt;Get Account Number(UserName)&lt;/font&gt;" style="text;align=center;html=1;verticalAlign=middle;whiteSpace=wrap;rounded=0;fillColor=#a0522d;fontColor=#ffffff;strokeColor=#6D1F00;" parent="1" vertex="1">
          <mxGeometry x="143" y="387" width="179" height="30" as="geometry" />
        </mxCell>
        <mxCell id="1LSWf5ZobUg1uSj3djis-76" value="Account Number" style="text;strokeColor=#d6b656;align=center;fillColor=#fff2cc;html=1;verticalAlign=middle;whiteSpace=wrap;rounded=0;gradientColor=#ffd966;" parent="1" vertex="1">
          <mxGeometry x="176" y="454" width="107" height="30" as="geometry" />
        </mxCell>
        <mxCell id="1LSWf5ZobUg1uSj3djis-79" value="" style="edgeStyle=segmentEdgeStyle;endArrow=classic;html=1;curved=0;rounded=0;endSize=8;startSize=8;strokeColor=#FFBF00;exitX=0;exitY=0.25;exitDx=0;exitDy=0;" parent="1" edge="1">
          <mxGeometry width="50" height="50" relative="1" as="geometry">
            <mxPoint x="328" y="574.75" as="sourcePoint" />
            <mxPoint x="128" y="554" as="targetPoint" />
            <Array as="points">
              <mxPoint x="328" y="554" />
            </Array>
          </mxGeometry>
        </mxCell>
        <mxCell id="1LSWf5ZobUg1uSj3djis-80" value="&lt;font color=&quot;#ffbf00&quot;&gt;Get User Balance(AccNum)&lt;/font&gt;" style="text;strokeColor=#6D1F00;align=center;fillColor=#a0522d;html=1;verticalAlign=middle;whiteSpace=wrap;rounded=0;fontColor=#ffffff;" parent="1" vertex="1">
          <mxGeometry x="140" y="518" width="179" height="30" as="geometry" />
        </mxCell>
        <mxCell id="1LSWf5ZobUg1uSj3djis-85" value="" style="edgeStyle=elbowEdgeStyle;elbow=horizontal;endArrow=classic;html=1;curved=0;rounded=0;endSize=8;startSize=8;strokeColor=#FFBF00;" parent="1" edge="1">
          <mxGeometry width="50" height="50" relative="1" as="geometry">
            <mxPoint x="130" y="574" as="sourcePoint" />
            <mxPoint x="329" y="574" as="targetPoint" />
          </mxGeometry>
        </mxCell>
        <mxCell id="1LSWf5ZobUg1uSj3djis-86" value="Balance" style="text;strokeColor=#d6b656;align=center;fillColor=#fff2cc;html=1;verticalAlign=middle;whiteSpace=wrap;rounded=0;gradientColor=#ffd966;" parent="1" vertex="1">
          <mxGeometry x="179" y="577" width="107" height="30" as="geometry" />
        </mxCell>
        <mxCell id="1LSWf5ZobUg1uSj3djis-87" value="" style="edgeStyle=elbowEdgeStyle;elbow=horizontal;endArrow=classic;html=1;curved=0;rounded=0;endSize=8;startSize=8;strokeColor=#FFBF00;entryX=1;entryY=0.5;entryDx=0;entryDy=0;exitX=0;exitY=0.75;exitDx=0;exitDy=0;" parent="1" source="1LSWf5ZobUg1uSj3djis-61" edge="1">
          <mxGeometry width="50" height="50" relative="1" as="geometry">
            <mxPoint x="327" y="614.38" as="sourcePoint" />
            <mxPoint x="128" y="667.63" as="targetPoint" />
            <Array as="points">
              <mxPoint x="307" y="649.38" />
            </Array>
          </mxGeometry>
        </mxCell>
        <mxCell id="sfVnikb0vE8_kgTPukuy-1" style="edgeStyle=orthogonalEdgeStyle;rounded=0;orthogonalLoop=1;jettySize=auto;html=1;exitX=0.5;exitY=0;exitDx=0;exitDy=0;" parent="1" source="1LSWf5ZobUg1uSj3djis-88" target="1LSWf5ZobUg1uSj3djis-50" edge="1">
          <mxGeometry relative="1" as="geometry" />
        </mxCell>
        <mxCell id="1LSWf5ZobUg1uSj3djis-88" value="&lt;font color=&quot;#ffbf00&quot;&gt;Get Tranction History(AccNum)&lt;/font&gt;" style="text;strokeColor=#6D1F00;align=center;fillColor=#a0522d;html=1;verticalAlign=middle;whiteSpace=wrap;rounded=0;fontColor=#ffffff;" parent="1" vertex="1">
          <mxGeometry x="148" y="629" width="143" height="35" as="geometry" />
        </mxCell>
        <mxCell id="1LSWf5ZobUg1uSj3djis-89" value="" style="edgeStyle=segmentEdgeStyle;endArrow=classic;html=1;curved=0;rounded=0;endSize=8;startSize=8;strokeColor=#FFBF00;exitX=1;exitY=0.75;exitDx=0;exitDy=0;entryX=0.107;entryY=0.991;entryDx=0;entryDy=0;entryPerimeter=0;" parent="1" source="1LSWf5ZobUg1uSj3djis-64" target="1LSWf5ZobUg1uSj3djis-61" edge="1">
          <mxGeometry width="50" height="50" relative="1" as="geometry">
            <mxPoint x="239" y="725" as="sourcePoint" />
            <mxPoint x="289" y="675" as="targetPoint" />
          </mxGeometry>
        </mxCell>
        <mxCell id="1LSWf5ZobUg1uSj3djis-90" value="Trancation History" style="text;strokeColor=#d6b656;align=center;fillColor=#fff2cc;html=1;verticalAlign=middle;whiteSpace=wrap;rounded=0;gradientColor=#ffd966;" parent="1" vertex="1">
          <mxGeometry x="189" y="700" width="107" height="30" as="geometry" />
        </mxCell>
        <mxCell id="1LSWf5ZobUg1uSj3djis-92" value="" style="edgeStyle=elbowEdgeStyle;elbow=horizontal;endArrow=classic;html=1;curved=0;rounded=0;endSize=8;startSize=8;strokeColor=#FFBF00;entryX=1;entryY=0.25;entryDx=0;entryDy=0;exitX=0.207;exitY=0.991;exitDx=0;exitDy=0;exitPerimeter=0;" parent="1" source="1LSWf5ZobUg1uSj3djis-61" target="1LSWf5ZobUg1uSj3djis-65" edge="1">
          <mxGeometry width="50" height="50" relative="1" as="geometry">
            <mxPoint x="471.5" y="685" as="sourcePoint" />
            <mxPoint x="233" y="818" as="targetPoint" />
            <Array as="points">
              <mxPoint x="359" y="736" />
            </Array>
          </mxGeometry>
        </mxCell>
        <mxCell id="1LSWf5ZobUg1uSj3djis-93" value="&lt;font color=&quot;#ffbf00&quot;&gt;Delete User (AccNum)&lt;/font&gt;" style="text;strokeColor=#6D1F00;align=center;fillColor=#a0522d;html=1;verticalAlign=middle;whiteSpace=wrap;rounded=0;fontColor=#ffffff;" parent="1" vertex="1">
          <mxGeometry x="174" y="744" width="143" height="35" as="geometry" />
        </mxCell>
        <mxCell id="1LSWf5ZobUg1uSj3djis-94" value="" style="edgeStyle=segmentEdgeStyle;endArrow=classic;html=1;curved=0;rounded=0;endSize=8;startSize=8;strokeColor=#FFBF00;exitX=1;exitY=0.75;exitDx=0;exitDy=0;" parent="1" source="1LSWf5ZobUg1uSj3djis-65" edge="1">
          <mxGeometry width="50" height="50" relative="1" as="geometry">
            <mxPoint x="150" y="817" as="sourcePoint" />
            <mxPoint x="383" y="652" as="targetPoint" />
          </mxGeometry>
        </mxCell>
        <mxCell id="1LSWf5ZobUg1uSj3djis-95" value="Confirmation" style="text;strokeColor=#d6b656;align=center;fillColor=#fff2cc;html=1;verticalAlign=middle;whiteSpace=wrap;rounded=0;gradientColor=#ffd966;" parent="1" vertex="1">
          <mxGeometry x="192" y="819" width="107" height="30" as="geometry" />
        </mxCell>
        <mxCell id="1LSWf5ZobUg1uSj3djis-96" value="" style="edgeStyle=elbowEdgeStyle;elbow=horizontal;endArrow=classic;html=1;curved=0;rounded=0;endSize=8;startSize=8;strokeColor=#d79b00;entryX=0;entryY=0.25;entryDx=0;entryDy=0;fillColor=#ffcd28;gradientColor=#ffa500;exitX=0.75;exitY=0;exitDx=0;exitDy=0;" parent="1" source="1LSWf5ZobUg1uSj3djis-61" edge="1">
          <mxGeometry width="50" height="50" relative="1" as="geometry">
            <mxPoint x="441" y="537" as="sourcePoint" />
            <mxPoint x="663" y="422" as="targetPoint" />
            <Array as="points">
              <mxPoint x="441" y="488" />
            </Array>
          </mxGeometry>
        </mxCell>
        <mxCell id="1LSWf5ZobUg1uSj3djis-97" value="&lt;font color=&quot;#ffbf00&quot;&gt;View Bank DataBase&lt;/font&gt;" style="text;align=center;html=1;verticalAlign=middle;whiteSpace=wrap;rounded=0;fillColor=#a0522d;fontColor=#ffffff;strokeColor=#6D1F00;" parent="1" vertex="1">
          <mxGeometry x="461" y="387" width="179" height="30" as="geometry" />
        </mxCell>
        <mxCell id="1LSWf5ZobUg1uSj3djis-98" value="" style="edgeStyle=segmentEdgeStyle;endArrow=classic;html=1;curved=0;rounded=0;endSize=8;startSize=8;strokeColor=#d79b00;entryX=0.893;entryY=0.018;entryDx=0;entryDy=0;entryPerimeter=0;exitX=0;exitY=0.75;exitDx=0;exitDy=0;fillColor=#ffcd28;gradientColor=#ffa500;" parent="1" source="1LSWf5ZobUg1uSj3djis-66" target="1LSWf5ZobUg1uSj3djis-61" edge="1">
          <mxGeometry width="50" height="50" relative="1" as="geometry">
            <mxPoint x="526" y="508" as="sourcePoint" />
            <mxPoint x="576" y="458" as="targetPoint" />
          </mxGeometry>
        </mxCell>
        <mxCell id="1LSWf5ZobUg1uSj3djis-99" value="Bank Database" style="text;strokeColor=#d6b656;align=center;fillColor=#fff2cc;html=1;verticalAlign=middle;whiteSpace=wrap;rounded=0;gradientColor=#ffd966;" parent="1" vertex="1">
          <mxGeometry x="516" y="454" width="107" height="30" as="geometry" />
        </mxCell>
        <mxCell id="1LSWf5ZobUg1uSj3djis-101" value="" style="edgeStyle=elbowEdgeStyle;elbow=horizontal;endArrow=classic;html=1;curved=0;rounded=0;endSize=8;startSize=8;strokeColor=#FFBF00;entryX=0;entryY=0.25;entryDx=0;entryDy=0;exitX=1;exitY=0.25;exitDx=0;exitDy=0;" parent="1" edge="1">
          <mxGeometry width="50" height="50" relative="1" as="geometry">
            <mxPoint x="478" y="567.75" as="sourcePoint" />
            <mxPoint x="663" y="531.25" as="targetPoint" />
            <Array as="points">
              <mxPoint x="502" y="550" />
            </Array>
          </mxGeometry>
        </mxCell>
        <mxCell id="1LSWf5ZobUg1uSj3djis-103" value="&lt;font color=&quot;#ffbf00&quot;&gt;New User Data&lt;/font&gt;" style="text;align=center;html=1;verticalAlign=middle;whiteSpace=wrap;rounded=0;fillColor=#a0522d;fontColor=#ffffff;strokeColor=#6D1F00;" parent="1" vertex="1">
          <mxGeometry x="507" y="498" width="133" height="30" as="geometry" />
        </mxCell>
        <mxCell id="1LSWf5ZobUg1uSj3djis-108" value="" style="edgeStyle=elbowEdgeStyle;elbow=horizontal;endArrow=classic;html=1;curved=0;rounded=0;endSize=8;startSize=8;strokeColor=#FFBF00;entryX=1;entryY=0.5;entryDx=0;entryDy=0;exitX=0;exitY=0.75;exitDx=0;exitDy=0;" parent="1" source="1LSWf5ZobUg1uSj3djis-67" edge="1">
          <mxGeometry width="50" height="50" relative="1" as="geometry">
            <mxPoint x="677" y="548" as="sourcePoint" />
            <mxPoint x="478" y="601.25" as="targetPoint" />
            <Array as="points">
              <mxPoint x="513" y="585" />
            </Array>
          </mxGeometry>
        </mxCell>
        <mxCell id="1LSWf5ZobUg1uSj3djis-109" value="Confirmation" style="text;strokeColor=#d6b656;align=center;fillColor=#fff2cc;html=1;verticalAlign=middle;whiteSpace=wrap;rounded=0;gradientColor=#ffd966;" parent="1" vertex="1">
          <mxGeometry x="528" y="573" width="107" height="30" as="geometry" />
        </mxCell>
        <mxCell id="1LSWf5ZobUg1uSj3djis-110" value="" style="edgeStyle=elbowEdgeStyle;elbow=horizontal;endArrow=classic;html=1;curved=0;rounded=0;endSize=8;startSize=8;strokeColor=#FFBF00;" parent="1" edge="1">
          <mxGeometry width="50" height="50" relative="1" as="geometry">
            <mxPoint x="477" y="637" as="sourcePoint" />
            <mxPoint x="661" y="663" as="targetPoint" />
            <Array as="points">
              <mxPoint x="522" y="646" />
            </Array>
          </mxGeometry>
        </mxCell>
        <mxCell id="1LSWf5ZobUg1uSj3djis-111" value="&lt;font color=&quot;#ffbf00&quot;&gt;Updated Data&lt;/font&gt;" style="text;align=center;html=1;verticalAlign=middle;whiteSpace=wrap;rounded=0;fillColor=#a0522d;fontColor=#ffffff;strokeColor=#6D1F00;" parent="1" vertex="1">
          <mxGeometry x="532" y="626" width="120" height="30" as="geometry" />
        </mxCell>
        <mxCell id="1LSWf5ZobUg1uSj3djis-112" value="" style="edgeStyle=elbowEdgeStyle;elbow=horizontal;endArrow=classic;html=1;curved=0;rounded=0;endSize=8;startSize=8;strokeColor=#FFBF00;entryX=0.927;entryY=0.991;entryDx=0;entryDy=0;exitX=0;exitY=0.75;exitDx=0;exitDy=0;entryPerimeter=0;" parent="1" target="1LSWf5ZobUg1uSj3djis-61" edge="1">
          <mxGeometry width="50" height="50" relative="1" as="geometry">
            <mxPoint x="663" y="688.37" as="sourcePoint" />
            <mxPoint x="470.0500000000002" y="660.622" as="targetPoint" />
            <Array as="points">
              <mxPoint x="510" y="677.62" />
            </Array>
          </mxGeometry>
        </mxCell>
        <mxCell id="1LSWf5ZobUg1uSj3djis-113" value="Confirmation" style="text;strokeColor=#d6b656;align=center;fillColor=#fff2cc;html=1;verticalAlign=middle;whiteSpace=wrap;rounded=0;gradientColor=#ffd966;" parent="1" vertex="1">
          <mxGeometry x="536" y="690" width="107" height="30" as="geometry" />
        </mxCell>
        <mxCell id="1LSWf5ZobUg1uSj3djis-114" value="" style="ellipse;html=1;shape=endState;fillColor=#fff2cc;strokeColor=#d6b656;gradientColor=#ffd966;" parent="1" vertex="1">
          <mxGeometry x="605" y="796" width="30" height="30" as="geometry" />
        </mxCell>
        <mxCell id="1LSWf5ZobUg1uSj3djis-115" value="" style="ellipse;html=1;shape=endState;fillColor=#fff2cc;strokeColor=#d6b656;gradientColor=#ffd966;" parent="1" vertex="1">
          <mxGeometry x="952" y="552" width="30" height="30" as="geometry" />
        </mxCell>
        <mxCell id="1LSWf5ZobUg1uSj3djis-119" value="" style="edgeStyle=elbowEdgeStyle;elbow=horizontal;endArrow=classic;html=1;curved=0;rounded=0;endSize=8;startSize=8;strokeColor=#d79b00;exitX=0.613;exitY=1;exitDx=0;exitDy=0;exitPerimeter=0;entryX=0;entryY=0.5;entryDx=0;entryDy=0;fillColor=#ffcd28;gradientColor=#ffa500;" parent="1" edge="1">
          <mxGeometry width="50" height="50" relative="1" as="geometry">
            <mxPoint x="431.99999999999983" y="653" as="sourcePoint" />
            <mxPoint x="603.05" y="813" as="targetPoint" />
            <Array as="points">
              <mxPoint x="432.05" y="756" />
            </Array>
          </mxGeometry>
        </mxCell>
        <mxCell id="1LSWf5ZobUg1uSj3djis-120" value="&lt;font color=&quot;#ffbf00&quot;&gt;Logout&lt;/font&gt;" style="text;align=center;html=1;verticalAlign=middle;whiteSpace=wrap;rounded=0;fillColor=#a0522d;fontColor=#ffffff;strokeColor=#6D1F00;" parent="1" vertex="1">
          <mxGeometry x="473" y="771" width="120" height="30" as="geometry" />
        </mxCell>
        <mxCell id="1LSWf5ZobUg1uSj3djis-121" value="&lt;font style=&quot;font-size: 20px;&quot;&gt;Admin State Diagram&lt;/font&gt;" style="text;strokeColor=#d79b00;align=center;fillColor=#ffcd28;html=1;verticalAlign=middle;whiteSpace=wrap;rounded=0;gradientColor=#ffa500;" parent="1" vertex="1">
          <mxGeometry x="272" y="-48" width="264" height="30" as="geometry" />
        </mxCell>
        <mxCell id="1LSWf5ZobUg1uSj3djis-122" value="&lt;font style=&quot;font-size: 17px;&quot; color=&quot;#ffbf00&quot;&gt;Request&amp;nbsp;&lt;/font&gt;" style="text;align=center;html=1;verticalAlign=middle;whiteSpace=wrap;rounded=0;fillColor=#a0522d;fontColor=#ffffff;strokeColor=#6D1F00;" parent="1" vertex="1">
          <mxGeometry x="953" y="40" width="126" height="30" as="geometry" />
        </mxCell>
        <mxCell id="1LSWf5ZobUg1uSj3djis-123" value="&lt;font style=&quot;font-size: 17px;&quot;&gt;Responce&lt;/font&gt;" style="text;strokeColor=#d6b656;align=center;fillColor=#fff2cc;html=1;verticalAlign=middle;whiteSpace=wrap;rounded=0;gradientColor=#ffd966;" parent="1" vertex="1">
          <mxGeometry x="954" y="77" width="122" height="30" as="geometry" />
        </mxCell>
      </root>
    </mxGraphModel>
  </diagram>
</mxfile>
